<svg id="fascist-poster" xmlns="http://www.w3.org/2000/svg" viewBox="0 0 129.5 186.5">
  <defs>
    <style>
      .cls-1 {
        fill: #2f2f33;
      }
    </style>
  </defs>
  <g id="hand">
    <g id="Group_65" data-name="Group 65">
      <path id="Path_106" data-name="Path 106" class="cls-1" d="M31,91.2a10.588,10.588,0,0,1-4.2-.9,9.705,9.705,0,0,1-5.1-5.6L15,66.2a9.773,9.773,0,0,1,5.9-12.6h0a9.773,9.773,0,0,1,12.6,5.9L40.3,78A9.868,9.868,0,0,1,31,91.2ZM22,56.4a7.056,7.056,0,0,0-3.9,3.5,6.3,6.3,0,0,0-.2,5.2l6.7,18.5a7.056,7.056,0,0,0,3.5,3.9,6.3,6.3,0,0,0,5.2.2,7.056,7.056,0,0,0,3.9-3.5,6.3,6.3,0,0,0,.2-5.2L30.7,60.5a7.056,7.056,0,0,0-3.5-3.9,7.172,7.172,0,0,0-5.2-.2Z"/>
      <path id="Path_107" data-name="Path 107" class="cls-1" d="M46.5,84.4A10.2,10.2,0,0,1,37,77.7L30,58.6a10.537,10.537,0,0,1,.3-7.8A9.734,9.734,0,0,1,36,45.6a10.537,10.537,0,0,1,7.8.3A9.734,9.734,0,0,1,49,51.6L53.9,65l-2.8,1L46.2,52.7a7.268,7.268,0,0,0-3.7-4,6.774,6.774,0,0,0-5.4-.2,7.268,7.268,0,0,0-4,3.7,6.774,6.774,0,0,0-.2,5.4l7,19.1A7.128,7.128,0,0,0,49,81a6.721,6.721,0,0,0,1.2-.6L51.7,83a8.865,8.865,0,0,1-1.7.8A10.3,10.3,0,0,1,46.5,84.4Z"/>
      <path id="Path_108" data-name="Path 108" class="cls-1" d="M51.1,66,45.3,50a10.983,10.983,0,0,1,15-13.7A10.566,10.566,0,0,1,66,42.5l5.5,15.2-2.8,1L63.2,43.5A8.019,8.019,0,0,0,53,38.7a7.894,7.894,0,0,0-4.5,4.1,8.057,8.057,0,0,0-.3,6.1l5.8,16Z"/>
      <path id="Path_109" data-name="Path 109" class="cls-1" d="M68.9,59.6,63.1,43.5A11.008,11.008,0,0,1,83.8,36L89,50.7l-2.8,1L80.9,37.1a7.971,7.971,0,0,0-15,5.4l5.8,16.1Z"/>
      <path id="Path_110" data-name="Path 110" class="cls-1" d="M58.5,86.3a12.024,12.024,0,0,1-11.3-7.9,11.767,11.767,0,0,1,.4-9.2A12.173,12.173,0,0,1,54.4,63L79,54a10.368,10.368,0,0,1,8.1.4,10.481,10.481,0,0,1,5.5,6l4.1,11.2-2.8,1L89.8,61.4a7.614,7.614,0,0,0-9.7-4.6l-24.6,9a8.751,8.751,0,0,0-5.1,4.7,9.158,9.158,0,0,0-.3,6.9,8.975,8.975,0,0,0,11.5,5.4L76,77.5l1,2.8L62.5,85.6A11.25,11.25,0,0,1,58.5,86.3Z"/>
      <path id="Path_111" data-name="Path 111" class="cls-1" d="M61.9,105.2c-3.3-8.9-.4-15.5,2.5-19.4a25.157,25.157,0,0,1,10-7.8l1,2.8a21.478,21.478,0,0,0-8.7,6.8c-3.6,4.8-4.3,10.4-2.1,16.5Z"/>
      <path id="Path_112" data-name="Path 112" class="cls-1" d="M50.5,126.9a19.113,19.113,0,0,1-18-12.7L15,66.2l2.8-1,17.5,48a16.1,16.1,0,0,0,20.2,9.9c.2-.1.4-.1.5-.2l1,2.8a1.421,1.421,0,0,1-.6.2A19.738,19.738,0,0,1,50.5,126.9Z"/>
      <path id="Path_113" data-name="Path 113" class="cls-1" d="M91.3,113.2l-1-2.8A16.24,16.24,0,0,0,100,89.6l-17.5-48,2.8-1,17.5,48A19.172,19.172,0,0,1,91.3,113.2Z"/>
    </g>
    <rect id="Rectangle_54" data-name="Rectangle 54" class="cls-1" width="3" height="20.1" transform="translate(49.352 126.14) rotate(-19.999)"/>
    <rect id="Rectangle_55" data-name="Rectangle 55" class="cls-1" width="3" height="37.3" transform="translate(94.722 109.648) rotate(-19.999)"/>
  </g>
  <path id="bottom" class="cls-1" d="M120.5,180.2H8.9a1.538,1.538,0,0,1-1.5-1.5V144.1a1.538,1.538,0,0,1,1.5-1.5H120.5a1.538,1.538,0,0,1,1.5,1.5v34.6A1.417,1.417,0,0,1,120.5,180.2Zm-110.1-3H119V145.6H10.4Z"/>
  <path id="poster" class="cls-1" d="M120.5,179.8H8.9a1.11,1.11,0,0,1-1.1-1.1V7.2A1.11,1.11,0,0,1,8.9,6.1h93.2V8.4H10V177.6H119.3V29.6h2.3V178.7A1.11,1.11,0,0,1,120.5,179.8Z"/>
  <path id="bill" class="cls-1" d="M127.9,186.5H1.5A1.538,1.538,0,0,1,0,185V1.5A1.538,1.538,0,0,1,1.5,0H103.6a1.845,1.845,0,0,1,1.2.5l24.4,29.4a1.689,1.689,0,0,1,.3,1V185A1.558,1.558,0,0,1,127.9,186.5ZM3,183.5H126.4V31.4L102.9,3H3Z"/>
  <path id="fold" class="cls-1" d="M127.9,32.3h-.3L98.8,27a2.075,2.075,0,0,1-1-.6,1.389,1.389,0,0,1-.2-1.1l4.5-24A1.5,1.5,0,0,1,103.2.1a1.377,1.377,0,0,1,1.5.5l24.4,29.3a1.36,1.36,0,0,1,.1,1.7A1.269,1.269,0,0,1,127.9,32.3Zm-27.1-8,23.3,4.3L104.4,5Z"/>
</svg>
