<?xml version="1.0" encoding="utf-8"?>
<!-- Generator: Adobe Illustrator 19.0.0, SVG Export Plug-In . SVG Version: 6.00 Build 0)  -->
<svg version="1.1" id="Layer_1" xmlns="http://www.w3.org/2000/svg" xmlns:xlink="http://www.w3.org/1999/xlink" x="0px" y="0px"
	 viewBox="-177 269 256 256" style="enable-background:new -177 269 256 256;" xml:space="preserve">
<style type="text/css">
	.st0{fill:#EF6330;}
</style>
<path class="st0" d="M-124.3,397c0-3.5,2.9-6,6.4-6h122L-43,345c-2.5-2.5-2.6-6.6-0.1-9.1c1.3-1.3,2.9-2,4.6-2
	c1.6,0,3.2,0.6,4.5,1.8l58.5,56.7c1.2,1.2,1.9,2.9,1.9,4.6c0,1.7-0.7,3.4-1.9,4.6l-58.5,56.7c-2.5,2.5-6.6,2.4-9.1-0.1
	c-2.5-2.5-2.4-6.8,0.1-9.3L4.1,403h-122C-121.4,403-124.3,400.5-124.3,397z M-177,397c0,70.6,57.4,128,128,128S79,467.6,79,397
	S21.6,269-49,269S-177,326.4-177,397z M-164.2,397c0-63.5,51.7-115.2,115.2-115.2S66.2,333.5,66.2,397S14.5,512.2-49,512.2
	S-164.2,460.5-164.2,397z"/>
</svg>
