<?xml version="1.0" encoding="utf-8"?>
<!-- Generator: Adobe Illustrator 17.1.0, SVG Export Plug-In . SVG Version: 6.00 Build 0)  -->
<!DOCTYPE svg PUBLIC "-//W3C//DTD SVG 1.1//EN" "http://www.w3.org/Graphics/SVG/1.1/DTD/svg11.dtd">
<svg version="1.1" id="RAW_ICONS_-_SQUARE__x2F__ROUNDED__x2F__CIRCLE"
	 xmlns="http://www.w3.org/2000/svg" xmlns:xlink="http://www.w3.org/1999/xlink" x="0px" y="0px" viewBox="0 0 100 100"
	 enable-background="new 0 0 100 100" xml:space="preserve">
<path id="Facebook" display="none" fill="#FFFFFF" d="M50,1.7C23.3,1.7,1.7,23.3,1.7,50c0,26.7,21.6,48.3,48.3,48.3
	c26.7,0,48.3-21.6,48.3-48.3C98.3,23.3,76.7,1.7,50,1.7z M60.4,50h-6.8c0,10.8,0,24.1,0,24.1h-10c0,0,0-13.2,0-24.1h-4.8v-8.5h4.8
	V36c0-4,1.9-10.1,10.1-10.1l7.4,0v8.3c0,0-4.5,0-5.4,0c-0.9,0-2.1,0.4-2.1,2.3v5h7.7L60.4,50z"/>
<path id="Twitter" display="none" fill="#FFFFFF" d="M50,1.7C23.3,1.7,1.7,23.3,1.7,50c0,26.7,21.6,48.3,48.3,48.3
	c26.7,0,48.3-21.6,48.3-48.3C98.3,23.3,76.7,1.7,50,1.7z M69.2,40.1c0,0.4,0,0.8,0,1.3c0,13.1-10,28.2-28.2,28.2
	c-5.6,0-10.8-1.6-15.2-4.5c0.8,0.1,1.6,0.1,2.4,0.1c4.6,0,8.9-1.6,12.3-4.2c-4.3-0.1-8-2.9-9.3-6.9c0.6,0.1,1.2,0.2,1.9,0.2
	c0.9,0,1.8-0.1,2.6-0.3c-4.5-0.9-8-4.9-8-9.7c0,0,0-0.1,0-0.1c1.3,0.7,2.9,1.2,4.5,1.2c-2.7-1.8-4.4-4.8-4.4-8.3
	c0-1.8,0.5-3.5,1.3-5c4.9,6,12.2,9.9,20.4,10.4c-0.2-0.7-0.3-1.5-0.3-2.3c0-5.5,4.4-9.9,9.9-9.9c2.8,0,5.4,1.2,7.2,3.1
	c2.3-0.4,4.4-1.3,6.3-2.4c-0.7,2.3-2.3,4.3-4.4,5.5c2-0.2,3.9-0.8,5.7-1.6C72.8,37,71.2,38.8,69.2,40.1z"/>
<path id="Email" display="none" fill="#FFFFFF" d="M50,1.7C23.3,1.7,1.7,23.3,1.7,50c0,26.7,21.6,48.3,48.3,48.3
	c26.7,0,48.3-21.6,48.3-48.3C98.3,23.3,76.7,1.7,50,1.7z M77.3,70H23.6l0-3l14.2-15.6l11.1,11.7c1,1,2.6,1,3.6,0l10.7-11.8
	l14.1,15.7V70z M23.6,63.4V35.9l12.7,13.8L23.6,63.4z M64.5,49.6l12.7-13.8v27.5L64.5,49.6z M51.2,60.7c-0.4,0.4-1,0.4-1.4,0
	L23.6,32.3h53.9L51.2,60.7z"/>
<g id="LinkedIn">
	<path fill="#FFFFFF" d="M52.9,46.4v-0.1C52.9,46.4,52.9,46.4,52.9,46.4L52.9,46.4z"/>
	<path fill="#FFFFFF" d="M50,1.7C23.3,1.7,1.7,23.3,1.7,50c0,26.7,21.6,48.3,48.3,48.3c26.7,0,48.3-21.6,48.3-48.3
		C98.3,23.3,76.7,1.7,50,1.7z M36.8,73.1H26.5V41.9h10.4V73.1z M31.6,37.7L31.6,37.7c-3.5,0-5.8-2.4-5.8-5.4c0-3.1,2.3-5.4,5.9-5.4
		c3.5,0,5.7,2.3,5.8,5.4C37.5,35.3,35.2,37.7,31.6,37.7z M74.2,73.1H63.8V56.4c0-4.2-1.5-7-5.2-7c-2.9,0-4.6,1.9-5.3,3.8
		c-0.3,0.7-0.3,1.6-0.3,2.5v17.4H42.5c0,0,0.1-28.2,0-31.2h10.4v4.4c1.4-2.1,3.8-5.1,9.3-5.1c6.8,0,11.9,4.4,11.9,14V73.1z"/>
</g>
</svg>
