<?xml version="1.0" encoding="UTF-8"?>
<svg width="98px" height="26px" viewBox="0 0 98 26" version="1.1" xmlns="http://www.w3.org/2000/svg" xmlns:xlink="http://www.w3.org/1999/xlink">
    <!-- Generator: Sketch 50.2 (55047) - http://www.bohemiancoding.com/sketch -->
    <title>paint1</title>
    <desc>Created with Sketch.</desc>
    <defs></defs>
    <g id="Landing-Page" stroke="none" stroke-width="1" fill="none" fill-rule="evenodd">
        <g id="NDN_LandingPage" transform="translate(-246.000000, -776.000000)" fill="#D92D27" fill-rule="nonzero">
            <g id="Section-1" transform="translate(103.000000, 707.000000)">
                <g id="Bucket1">
                    <g id="paint1" transform="translate(192.000000, 82.000000) rotate(-360.000000) translate(-192.000000, -82.000000) translate(143.000000, 69.000000)">
                        <path d="M18.5773336,5.45813953 L18.2619007,5.03604651 C18.1042905,5.06252243 17.9490272,5.09670004 17.7970523,5.13837209 L14.7921396,6.34069767 C14.6095206,6.41744186 14.4269016,6.46860465 14.2940878,6.34069767 C14.4197491,6.24030484 14.5209684,6.12332913 14.5929189,5.99534884 C14.5929189,5.88023256 14.5929189,5.76511628 14.7257327,5.6755814 C15.5498948,5.11724121 16.4652009,4.64424665 17.4484161,4.26860465 C17.4484161,4.26860465 17.5646282,4.15348837 17.7306454,4 C16.4672088,4.38542086 15.2505345,4.85625056 14.094867,5.40697674 C13.7588515,5.58443541 13.3965954,5.7304251 13.0157547,5.84186047 C12.6907909,5.87637744 12.3612165,5.87637744 12.0362528,5.84186047 L12.0362528,6.2255814 C11.7706251,5.99534884 11.7042182,5.65 11.2725733,5.48372093 C10.7143883,5.67917819 10.2078449,5.95236242 9.77841775,6.28953488 C9.64283154,6.39990613 9.47057418,6.4795349 9.28036592,6.51976744 C8.26501865,6.83091234 7.19731546,7.0290267 6.10943588,7.10813953 C6.10943588,7.10813953 5.97662206,7.10813953 5.87701169,7.22325581 L6.32525834,7.73488372 C5.7997432,7.92626548 5.19060069,7.92626548 4.66508555,7.73488372 C4.78129765,8.15697674 4.78129765,8.15697674 4.28324581,8.29767442 L4.18363544,8.29767442 C4.01761816,8.20813953 3.85160088,8.06744186 3.71878706,8.09302326 C3.23438626,8.24669608 2.71528272,8.32494523 2.19142809,8.32325581 L2.05861426,8.4 C2.048092,8.5107045 2.048092,8.62185364 2.05861426,8.73255814 C2.05318437,8.79217476 2.05318437,8.85201128 2.05861426,8.91162791 L2.70608165,9.01395349 C2.79937603,9.02717066 2.89501666,9.02717066 2.98831103,9.01395349 L3.22073522,9.01395349 L2.37404709,9.29534884 C2.50409345,9.6721747 2.30265451,10.0705146 1.87599526,10.2802326 C1.55694474,10.4770765 1.27234586,10.7049427 1.02930713,10.9581395 C0.796165026,11.3119038 0.439745942,11.6086498 0,11.8151163 C0,11.8151163 0,11.9174419 0,11.9686047 C0.817368227,11.5439873 1.85220518,11.4532784 2.77248857,11.7255814 L3.12112485,11.7255814 C3.33694731,11.7255814 3.43655768,11.7255814 3.43655768,11.9174419 L3.32034559,11.9174419 C3.15432831,11.9174419 2.9717093,11.9174419 2.78909029,11.9174419 C2.60647129,11.9174419 2.5566661,12.0453488 2.45705573,12.122093 C2.35744537,12.1988372 2.30764018,12.2755814 2.35744537,12.3651163 C2.25838307,12.3765015 2.15767656,12.3765015 2.05861426,12.3651163 C2.05325988,12.4608109 2.03091655,12.5554894 1.99220735,12.6465116 L1.87599526,12.8127907 C1.49424602,12.8164115 1.12106246,12.9004549 0.796882941,13.055814 C0.796882941,13.1453488 0.796882941,13.2348837 0.796882941,13.2860465 C0.957774818,13.3576104 1.12409042,13.4216788 1.29493478,13.477907 C1.16212096,13.605814 1.16212096,13.6569767 1.29493478,13.7465116 L1.49415551,13.8104651 C1.48759303,13.8828576 1.48759303,13.9555145 1.49415551,14.027907 C1.49415551,14.3860465 1.36134169,14.7569767 1.29493478,15.1023256 L2.6728782,15.5372093 L2.24123327,16.0488372 C2.65146895,16.282236 3.1636676,16.3831853 3.66898187,16.3302326 C4.23558037,16.2955082 4.80549249,16.3476768 5.3457564,16.4837209 C6.1372777,16.763628 6.99830469,16.9076498 7.86921904,16.905814 C7.98869161,16.8801786 8.11498449,16.8801786 8.23445706,16.905814 C8.88647899,17.062943 9.56118455,17.1574562 10.2432661,17.1872093 C10.9324805,17.3665603 11.6790729,17.3665603 12.3682873,17.1872093 C12.5343046,17.1872093 12.7667288,17.1872093 12.9659495,17.1872093 C13.8455999,17.3213151 14.7430929,17.3728531 15.6388277,17.3406977 L16.4689141,17.3406977 C16.5467805,17.372533 16.6400736,17.372533 16.71794,17.3406977 C17.2073556,17.3382086 17.6961419,17.368164 18.1788921,17.4302326 C18.4581426,17.4636956 18.7438583,17.4416828 19.0089785,17.3662791 C19.7736728,17.13222 20.6375377,17.1940219 21.3332204,17.5325581 C21.6154498,17.6604651 21.6320515,17.8395349 21.7482636,18.005814 C21.23361,17.7372093 20.6691513,17.877907 20.0880908,17.8651163 C18.899742,17.8012993 17.7070681,17.8012993 16.5187193,17.8651163 C16.4191089,17.8651163 16.3194986,17.75 16.2364899,17.75 C15.256988,17.75 14.277486,17.75 13.3145858,17.75 C13.0769055,17.7625278 12.8383918,17.7625278 12.6007115,17.75 C12.6007115,17.75 12.6007115,17.75 12.6007115,17.75 C12.6007115,17.75 12.4180925,17.75 12.3350839,17.8139535 C12.1828,17.8494033 12.0527857,17.9268065 11.9698458,18.0313953 C11.4883957,17.8395349 10.8409283,18.2360465 10.4092834,17.7883721 C10.4092834,17.7244186 10.1104523,17.7883721 9.97763849,17.7883721 C9.84482467,17.7883721 9.67880739,17.9162791 9.54599356,17.9162791 L7.60359139,17.7883721 L7.75300695,17.7883721 C8.00616332,17.6811167 8.25015367,17.5614925 8.48348297,17.4302326 C8.08465629,17.5084094 7.70387167,17.6335244 7.35456548,17.8011628 L6.47467389,17.7627907 C6.12603761,17.7627907 6.34186007,17.4302326 6.12603761,17.3534884 C5.91021514,17.2767442 5.41216331,17.3534884 5.17973912,17.5965116 C4.83110283,17.5965116 4.46586481,17.494186 4.13383026,17.6860465 C4.12838019,17.7157438 4.12838019,17.7458841 4.13383026,17.7755814 C4.13383026,17.9034884 4.13383026,18.0186047 4.13383026,18.1465116 C4.25004235,18.3767442 4.58207691,18.5174419 4.68168728,18.3767442 C4.90281545,18.0540965 5.40741752,17.9152509 5.84380823,18.0569767 C7.34250367,18.3465568 8.88080996,18.4968512 10.4258851,18.5046512 C11.7042182,18.594186 13.0157547,18.5813953 14.3106895,18.5813953 C15.2237845,18.5813953 16.1368796,18.5813953 17.0499746,18.6581395 L17.1661867,18.6581395 C17.1661867,18.6581395 17.1661867,18.6581395 17.1661867,18.6581395 C18.0958834,18.6581395 19.0421819,18.722093 19.9884804,18.6581395 C20.8926499,18.5890221 21.8056347,18.654152 22.6779604,18.85 C22.9828042,19.2513983 23.3153143,19.6399386 23.674064,20.0139535 C24.9523971,21.2930233 26.2473319,22.4825581 27.5422666,23.7104651 C27.7253362,23.8952252 27.9573716,24.047834 28.2229375,24.1581395 C28.7530953,24.3154434 29.2178734,24.5806918 29.5676775,24.9255814 C29.9958168,25.3024875 30.4502698,25.6611577 30.9290191,26 L30.9290191,25.7697674 C30.9290191,25.7697674 30.9290191,25.8465116 30.9290191,25.872093 L30.9290191,25.744186 C30.3893111,25.1706187 29.7776319,24.6393752 29.1028291,24.1581395 C28.6767223,23.8682132 28.2824708,23.5516301 27.9241064,23.2116279 C26.6623751,22.0732558 25.4172455,20.9093023 24.1389124,19.7709302 C23.6621701,19.3798519 23.3147928,18.9060069 23.126207,18.3895349 L24.2385228,18.5430233 L23.9562934,18.9651163 C24.6168976,18.924042 25.2537964,19.1644824 25.6164662,19.5918605 C26.0149077,19.9755814 26.7785872,20.0651163 26.9612062,20.6151163 C26.9612062,20.6151163 27.09402,20.6918605 27.1770286,20.7174419 C28.1314925,21.0654118 28.9376583,21.6155338 29.5012705,22.3034884 C29.7600509,22.6039622 30.1953666,22.786029 30.6633915,22.7895349 L29.717093,21.9965116 C29.3298641,21.7685068 28.9837255,21.5018265 28.6877859,21.2034884 C28.3558981,20.811863 27.9470461,20.4623452 27.4758597,20.1674419 L26.7619854,19.655814 C26.6857689,19.5845079 26.6552808,19.4905504 26.6789768,19.4 C26.6789768,19.3232558 26.8283923,19.2209302 26.9280027,19.2209302 C27.6572987,19.1274608 28.4062782,19.2124522 29.0696256,19.4639535 L28.1233271,19.5662791 C28.2102199,19.6744663 28.35747,19.7453712 28.5217686,19.7581395 C29.0862273,19.7581395 29.6506861,19.7581395 30.1819414,19.8732558 C31.2887232,20.0267442 32.4342425,20.205814 33.6184991,20.4104651 C33.8771232,20.486953 34.1181442,20.5949141 34.3323734,20.7302326 C34.78062,20.5767442 35.1956632,20.7302326 35.6273081,20.8325581 C37.7689311,20.9732558 39.8939522,21.1651163 42.0355751,21.305814 C42.714292,21.4162672 43.4154726,21.4162672 44.0941894,21.305814 C44.2847319,21.2417442 44.5013091,21.2417442 44.6918516,21.305814 C45.0570896,21.472093 45.2895138,21.305814 45.5717432,21.177907 C45.8539726,21.05 46.2192106,21.177907 46.3686261,20.8965116 L45.3725224,20.5639535 C46.6064556,20.5852472 47.8374218,20.6664158 49.058106,20.8069767 C48.8731626,20.637727 48.6124563,20.5281673 48.32763,20.5 C47.6801626,20.4232558 47.049297,20.3209302 46.4018296,20.2186047 C46.244295,20.1888283 46.0932748,20.1414254 45.9535829,20.077907 C45.8944713,20.0394291 45.8584595,19.9839391 45.8539726,19.9244186 C45.8539726,19.8476744 45.8539726,19.7197674 46.0199898,19.694186 C46.2115281,19.6627527 46.409512,19.6627527 46.6010503,19.694186 C47.4311367,19.822093 48.2612231,19.8093023 49.124513,19.9116279 C50.523576,20.088795 51.9402606,20.1701206 53.3579536,20.1546512 C53.8421902,20.1826401 54.324264,20.2296001 54.8023039,20.2953488 C55.2671523,20.2953488 55.7652041,20.2953488 56.2300525,20.2953488 C57.5249873,20.4104651 58.8199221,20.5383721 60.0816534,20.7430233 C61.9629807,20.9939197 63.8669471,21.1307732 65.7760461,21.1523256 C65.9918685,21.1523256 66.207691,20.9988372 66.4235135,21.0116279 C66.7030694,21.0457774 66.9762227,21.1059057 67.2369981,21.1906977 C67.2369981,21.1906977 67.3200068,21.1906977 67.3532102,21.1906977 L69.8932746,21.4465116 C70.0426902,21.4465116 70.2751143,21.4465116 70.3415213,21.5488372 C70.5968931,21.8469858 71.0824528,21.9734409 71.5202439,21.855814 C72.2108277,21.8095882 72.9063319,21.8749354 73.5622565,22.0476744 C74.0266506,22.1299256 74.4983289,22.1855047 74.9734034,22.2139535 C75.742833,22.2325055 76.5065251,22.3226954 77.2478401,22.4825581 C78.508936,22.7354812 79.7987916,22.893969 81.099441,22.955814 L83.6063019,23.0965116 C83.6063019,22.572093 84.1209554,22.5848837 84.635609,22.6488372 C85.1502626,22.7127907 85.8309334,22.827907 86.4285956,22.9174419 C86.5116043,22.9174419 86.6112146,22.9174419 86.7772319,22.8406977 C85.4545958,22.384204 84.0060817,22.1864877 82.560393,22.2651163 L83.3406742,22.6488372 C83.0418431,22.6488372 82.8592241,22.7511628 82.7596138,22.6488372 C82.5452525,22.5616993 82.3582548,22.439457 82.2117567,22.2906977 C81.971881,21.9944033 81.5670936,21.8006684 81.1160427,21.7662791 C81.1160427,21.7662791 81.0164323,21.6255814 80.9334237,21.4976744 C81.6306963,21.4976744 82.2283585,21.4976744 82.8426224,21.6 C83.1248518,21.6 83.3904794,21.6895349 83.6727088,21.7151163 L84.8846349,21.8046512 C84.9666284,21.6773898 85.1630737,21.6213342 85.3328816,21.6767442 C85.6988001,21.5566009 86.1124823,21.5566009 86.4784008,21.6767442 L86.0135524,21.894186 C86.100305,21.9423813 86.195278,21.981119 86.2957818,22.0093023 L89.4501101,22.3418605 L89.9149585,21.8813953 C90.1018738,21.9757938 90.3024517,22.0530608 90.5126207,22.1116279 C91.2929019,22.2267442 92.1727935,22.3034884 92.8866678,22.4186047 C93.9059185,22.6011701 94.9454884,22.7082463 95.9911909,22.7383721 C96.0842804,22.4299293 95.9651498,22.1062721 95.6757581,21.8813953 L92.7704557,21.3953488 C92.6708453,21.3953488 92.5546332,21.3953488 92.4550229,21.4848837 L92.2392004,21.4848837 L92.13959,21.4848837 C92.13959,21.4848837 92.13959,21.4081395 92.13959,21.4081395 C92.2168584,21.4019786 92.2947458,21.4019786 92.3720142,21.4081395 C92.0220919,21.3309492 91.6675026,21.26692 91.3095036,21.2162791 C90.5292224,21.0883721 89.6493308,20.9988372 88.9520583,20.8965116 C88.3169263,20.8741808 87.7195017,20.6578482 87.2918855,20.2953488 C87.1090544,20.1170683 86.7847651,20.0681852 86.528206,20.1802326 C86.528206,20.3209302 86.3787904,20.4616279 86.1463663,20.4488372 C84.8535276,20.4218177 83.5727435,20.2494557 82.3445706,19.9372093 C81.6603302,19.740074 80.9618971,19.5735182 80.2527528,19.4383721 C79.9208915,19.3282782 79.5762531,19.2426251 79.2234457,19.1825581 C78.6755887,19.1825581 78.0945282,19.1825581 77.5632729,19.105814 C77.2439176,19.0548229 76.9127666,19.1318442 76.6833813,19.3104651 C76.4750388,19.4257454 76.1944513,19.4257454 75.9861088,19.3104651 C74.6965393,18.9336044 73.3534745,18.6759889 71.9850923,18.5430233 C71.6401422,18.4570566 71.2837281,18.4012791 70.9225817,18.3767442 C70.5249416,18.3804596 70.1319999,18.3102592 69.7770625,18.172093 C69.3534883,18.0680477 68.9708843,17.8832634 68.6647467,17.6348837 C68.5651364,17.5325581 68.3161105,17.5197674 68.1500932,17.455814 C67.5358292,17.2383721 66.8053532,17.2895349 66.2574962,16.944186 C66.627242,16.8676272 67.0166679,16.8676272 67.3864137,16.944186 L68.5485346,17.072093 L68.8971709,16.65 L68.7477554,16.7651163 C68.7447306,16.739588 68.7447306,16.7139004 68.7477554,16.6883721 C68.8020398,16.6512132 68.8636922,16.6209862 68.9303744,16.5988372 C69.5269675,16.8250174 70.202385,16.8967928 70.8561748,16.8034884 C70.7602503,16.7322773 70.6475524,16.6758395 70.5241403,16.6372093 L66.2906996,15.9593023 C66.1080806,15.9593023 65.9088599,15.8825581 65.9088599,15.6906977 L70.0592919,16.2790698 C71.0221921,16.4197674 71.9684906,16.5860465 72.9147891,16.7139535 L76.9988142,17.2383721 C77.2259183,17.284565 77.4479584,17.3444393 77.6628833,17.4174419 L78.1775368,17.4813953 L78.7253939,17.5453488 L81.3484669,17.7627907 C82.8520887,17.8031111 84.3473803,17.9530045 85.8143317,18.2104651 C87.4745045,18.5174419 89.1346773,18.6709302 90.7948501,18.9011628 L95.011689,19.4767442 C95.2838181,19.5234018 95.5503821,19.5875808 95.8085719,19.6686047 C96.5146039,19.8525754 97.2726732,19.8835477 98,19.7581395 L98,19.6813953 C97.9625277,19.6706085 97.9212602,19.6706085 97.8837879,19.6813953 L94.3310181,18.977907 C94.3310181,18.977907 94.3310181,18.977907 94.3310181,18.977907 L94.3310181,18.9139535 L95.9911909,18.7476744 C95.6425546,18.6453488 95.2109097,18.594186 95.011689,18.4023256 C94.7678425,18.1650807 94.3914532,18.031972 93.9989836,18.044186 C93.48433,18.044186 92.9862782,17.9674419 92.4716246,17.9290698 C92.577377,17.9727518 92.6774458,18.02415 92.7704557,18.0825581 C92.8700661,18.172093 92.9530747,18.2744186 93.0692868,18.3895349 C92.7372522,18.594186 92.4052177,18.4790698 92.1229883,18.3895349 C91.1972994,18.1600225 90.247406,17.9931117 89.2840928,17.8906977 C89.0654746,17.8501293 88.8537524,17.7900324 88.6532272,17.7116279 C88.7905456,17.6932406 88.9309519,17.6932406 89.0682704,17.7116279 C89.8485516,17.8011628 90.6454345,17.8651163 91.409114,18.005814 C91.7516343,18.0769666 92.1125026,18.0769666 92.4550229,18.005814 C91.8445399,17.832322 91.2090583,17.7163635 90.5624259,17.6604651 C89.8983568,17.6604651 89.2674911,17.3534884 88.5702185,17.5069767 L88.5702185,17.8011628 L87.7733356,17.8906977 C87.62392,17.8906977 87.441301,17.8267442 87.3250889,17.8906977 C86.3787904,18.1848837 85.5155006,17.8139535 84.635609,17.6860465 C84.4363883,17.6860465 84.635609,17.5453488 84.635609,17.4813953 C84.4499637,17.3233525 84.1813231,17.2386819 83.905133,17.2511628 L80.0535321,16.777907 C79.8709131,16.777907 79.6384889,16.777907 79.6052854,16.5093023 C79.6882941,16.5093023 79.8045062,16.4069767 79.9041166,16.4069767 L83.2244621,16.6244186 C83.5504944,16.6434734 83.8779318,16.6434734 84.2039641,16.6244186 C84.5858038,16.6244186 85.0174488,16.6244186 85.2664747,16.2023256 C84.45299,15.8186047 83.3240725,15.9593023 82.5271896,15.3325581 C83.4147057,15.3529774 84.298093,15.434307 85.1668643,15.5755814 C85.1668643,15.4093023 85.1668643,15.294186 85.1668643,15.1662791 C85.1668643,15.0383721 85.1668643,14.9744186 85.2664747,14.8337209 L84.5027952,14.8337209 L83.9383364,14.577907 L84.3533796,14.3093023 L83.0584449,14.1430233 L81.9793325,14.0023256 C80.6068253,13.7106256 79.19962,13.5263591 77.7790954,13.4523256 C77.4157703,13.4403492 77.0571812,13.3842313 76.7165848,13.2860465 C76.3369037,13.1749658 75.9175432,13.1749658 75.5378621,13.2860465 C74.7744068,13.5037419 73.9507986,13.5654337 73.1472133,13.4651163 L71.6198543,13.3372093 L71.6198543,13.8360465 C71.3839461,13.6742712 71.0493205,13.6296503 70.7565645,13.7209302 C71.702863,14.0790698 72.8151787,13.9895349 73.7448755,14.3860465 C72.9313908,14.3860465 72.0847027,14.2965116 71.3210232,14.2325581 C69.992885,14.1174419 68.6647467,13.9895349 67.3200068,13.9127907 C66.3133892,13.8068204 65.3232974,13.6225461 64.3648992,13.3627907 C63.9000508,13.2604651 63.4518042,13.094186 62.9869558,13.0174419 C61.7916314,12.8255814 60.596307,12.6593023 59.3843808,12.5186047 C58.9472729,12.4418483 58.4933505,12.4418483 58.0562426,12.5186047 C57.5487387,12.6120743 57.0197858,12.6120743 56.5122819,12.5186047 C56.1492479,12.4947511 55.788722,12.452018 55.4331696,12.3906977 C54.0804771,12.2317951 52.7514347,11.9704516 51.4653566,11.6104651 C51.3449005,11.5911556 51.2205747,11.5911556 51.1001186,11.6104651 C49.8358159,11.4746453 48.6048387,11.1944366 47.4477384,10.7790698 C47.6789808,10.753532 47.9137686,10.753532 48.145011,10.7790698 L51.2993393,11.022093 C51.5441451,11.0988749 51.8182131,11.0988749 52.0630188,11.022093 C51.2687129,10.8405464 50.5094009,10.5781535 49.8051838,10.2418605 L50.5024564,10.0883721 L49.8051838,10.2418605 C49.4953008,10.0010886 49.0821503,9.85557582 48.6430628,9.83255814 C46.5854651,9.59889868 44.5125729,9.4537126 42.4340166,9.39767442 L42.8490598,9.78139535 C42.2181941,9.78139535 41.5873285,9.70465116 40.9564628,9.69186047 C39.0015234,9.67511639 37.0520215,9.52962529 35.1292563,9.25697674 C34.8108386,9.21290192 34.4847738,9.21290192 34.1663561,9.25697674 C33.2431993,9.38585926 32.2936992,9.34643514 31.3938675,9.14186047 C29.8421393,8.88921408 28.2642607,8.74367651 26.6789768,8.70697674 C26.1143562,8.73154503 25.5492198,8.66623415 25.018804,8.51511628 C25.018804,8.3872093 25.018804,8.19534884 24.9025919,8.22093023 C24.5041504,8.36162791 24.3547349,7.97790698 24.0060986,7.99069767 C23.6886375,7.99478938 23.3714884,7.97335556 23.0598001,7.92674419 C23.0598001,7.92674419 22.9767915,7.8372093 22.8771811,7.73488372 C23.456386,7.68428724 24.0411576,7.68428724 24.6203625,7.73488372 C25.4379962,7.79758982 26.2636144,7.72788107 27.0442148,7.53023256 C27.2793575,7.49034954 27.5229464,7.49034954 27.7580891,7.53023256 C29.4182619,7.61976744 31.0784347,7.73488372 32.6389971,7.81162791 C33.8301306,7.90612166 35.0280277,7.9403036 36.2249704,7.91395349 C35.4621511,7.65344852 34.6354572,7.52257432 33.8011181,7.53023256 C32.6581346,7.52919357 31.5277453,7.34630429 30.4807725,6.99302326 C30.0914736,6.79871329 29.5786479,6.84142717 29.2522446,7.09534884 C29.2522446,7.09534884 29.0862273,7.09534884 29.0198204,7.09534884 L28.7375911,6.7627907 C27.8948497,6.81180593 27.0474099,6.75127172 26.2307301,6.58372093 C26.0813146,6.58372093 25.8986956,6.50697674 26.0315094,6.28953488 C26.1808015,6.29615341 26.330464,6.29615341 26.4797561,6.28953488 C26.911401,6.28953488 27.3596476,6.28953488 27.6916822,5.95697674 C28.0237168,5.6244186 28.2561409,5.95697674 28.5051669,5.95697674 C28.6877859,5.72674419 28.7873962,5.43255814 29.0198204,5.33023256" id="Shape"></path>
                        <polygon id="Shape" points="46 20.25 45 20.25 45.9 20"></polygon>
                        <path d="M69,20.2064577 C69.1143324,19.9041559 69.2939975,20.0175191 69.424663,20.0364129 C70.17599,20.1308822 70.9109837,20.2442454 71.6459774,20.3765025 C71.9073085,20.3765025 72.0869736,20.584335 71.9563081,21 C70.9525987,20.8366764 69.9633196,20.5711307 69,20.2064577 Z" id="Shape"></path>
                        <polygon id="Shape" points="79 21.05 79.4 21 79.3 21.2"></polygon>
                        <path d="M80.3478261,21 C80.5797364,21.1202319 80.7986161,21.2712589 81,21.45 L80.5652174,22 L80,21.45 C80,21.45 80.3043478,21 80.3478261,21 Z" id="Shape"></path>
                        <path d="M82,23.5876083 C82,23.5876083 82,23.8161226 82,23.9467022 C82,24.0772818 81.4117647,23.9467022 81.3529412,23.7834777 C81.2076539,23.5263944 81.0898024,23.2647813 81,23 C81.3598552,23.1814259 81.6941646,23.3778689 82,23.5876083 Z" id="Shape"></path>
                        <path d="M81,23 C80.9461583,23.2592336 80.8705538,23.5018229 80.7758621,23.7191822 C80.5344828,24.1882141 80.362069,24.0944077 80,23.2501503 L81,23 Z" id="Shape"></path>
                        <path d="M80,22.9831653 L79,22.2331653 C79.3111111,21.8831653 79.6,21.7831653 80,22.9831653 Z" id="Shape"></path>
                        <path d="M78,22 C77.646564,21.9414442 77.3038421,21.6781736 77,21.2318244 C77.5671642,20.7562872 77.8507463,21.0123457 78,22 Z" id="Shape"></path>
                        <polygon id="Shape" points="84 21.2 84.4 21 84.5 21.2"></polygon>
                        <path d="M91,21.0080492 C91,21.0080492 91,21.3580492 91,21.3580492 L90,21.3580492 C90.0189567,21.2751714 90.0189567,21.1909271 90,21.1080492 C90.313626,21.0172956 90.6589099,20.9827672 91,21.0080492 Z" id="Shape"></path>
                        <path d="M87.542556,21.0677966 C88.3966912,21.1434671 89.2299806,21.3848517 90,21.779661 L89.7089869,22 C88.9833456,21.7795256 88.2332384,21.6598594 87.4778864,21.6440678 C87.1060363,21.6440678 86.9605298,21.3898305 87.009032,21 C87.1834376,21.046078 87.3627001,21.0688575 87.542556,21.0677966 Z" id="Shape"></path>
                        <path d="M87,21.176818 C86.9078613,21.4373854 86.7989061,21.6639814 86.6769231,21.8487263 C86.3384615,22.2377259 86.1538462,21.8487263 86,21 C86.3076923,21.3182724 86.6461538,21.7072719 87,21.176818 Z" id="Shape"></path>
                        <path d="M85,21 C84.7435517,22.0195502 84.2963746,22.1313445 84,21.25 L85,21 Z" id="Shape"></path>
                        <path d="M83.832618,20.5839274 C84.2835749,20.572833 84.7155598,20.7184521 85,20.9774436 C84.3472864,21.0330899 83.6860313,20.9854928 83.0600858,20.8378088 C82.6995708,20.8378088 82.3390558,20.6727859 81.9785408,20.8378088 C81.9785408,20.8378088 81.7381974,20.8378088 81.6523605,20.8378088 C80.6138841,20.515309 79.499722,20.3470894 78.3733906,20.34274 C78.045432,20.3410866 77.7181891,20.3198609 77.3948498,20.2792696 C77.2403433,20.2792696 77.1373391,20.1015526 77,20 L83.832618,20.5839274 Z" id="Shape"></path>
                        <path d="M76,20.3 C75.7272727,20.8 75.4318182,21.05 75,20 L76,20.3 Z" id="Shape"></path>
                        <path d="M69.6820513,20.0246622 C70.369958,20.2219478 71.1084136,20.3225757 71.8538462,20.3206085 C73.074359,20.394595 74.2948718,20.5425682 75.4435897,20.6782102 C75.6378752,20.715868 75.8247312,20.7697021 76,20.8385144 C75.7846154,20.9248321 75.6948718,21.0111498 75.6051282,20.9988187 C73.8102564,20.912501 72.1589744,20.6412169 70.4179487,20.5795615 C69.9162184,20.5040683 69.4367662,20.3706436 69,20.1849664 L69,20 C69.2871795,20.0246622 69.5205128,20.0246622 69.6820513,20.0246622 Z" id="Shape"></path>
                        <polygon id="Shape" points="66.9 17.35 66 17.35 66 17"></polygon>
                        <path d="M65,17.3566891 C64.6764706,18.2066891 64.3823529,17.3566891 64,17.3566891 C64.4117647,16.6066891 64.7941176,17.2566891 65,17.3566891 Z" id="Shape"></path>
                        <path d="M84.9115336,14.85 C84.9115336,14.85 84.3485275,14.85 84.1072392,14.85 C83.8659509,14.85 84.1072392,14.45 84.1072392,14.35 C84.3116433,14.2065146 84.5570821,14.0878411 84.8311041,14 C85.024145,14.2676964 85.0527575,14.5700801 84.9115336,14.85 Z" id="Shape"></path>
                        <path d="M75.0833333,16.0027435 L76,16.4027435 L76,16.8527435 L75,16.8527435 C75,16.8527435 75,16.6027435 75,16.6027435 C75,16.6027435 75,15.9527435 75.0833333,16.0027435 Z" id="Shape"></path>
                        <polygon id="Shape" points="75 16.1 75 16.35 75 16.35 75 16"></polygon>
                        <polygon id="Shape" points="73 15.3 73 15.3 73 15.3 73 15"></polygon>
                        <path d="M72,15.35 C72,15.35 72,15.35 72,15.35 L71,15.7 C71.1529727,15.4472614 71.3395272,15.2122028 71.5555556,15 C71.5555556,15 71.7777778,15.3 72,15.35 Z" id="Shape"></path>
                        <path d="M71.6,15.2631579 C71.9454545,15.2631579 71.9818182,15.6315789 72,16 L71.2181818,15 L71,15 L71.2181818,15 C71.3353716,15.115555 71.4641522,15.2043135 71.6,15.2631579 Z" id="Shape"></path>
                        <path d="M72,13.2705104 L71,13.8705104 C71.25,13.2705104 71.5,12.6205104 72,13.2705104 Z" id="Shape"></path>
                        <polygon id="Shape" points="71 13 72 13 71.4 13.3"></polygon>
                        <path d="M64.5151515,16.75 C64.3115361,16.9233193 64.0984754,16.613128 64,16 L65,16.25 C64.8463437,16.4913365 64.683108,16.6596734 64.5151515,16.75 Z" id="Shape"></path>
                        <path d="M70,14 C70,14.5 70,15 69,14.65 L70,14 Z" id="Shape"></path>
                        <path d="M69.7272727,14.9642857 L70,14.7142857 L69.7454545,15 C69.5504522,14.8379519 69.3620268,14.6469215 69.1818182,14.4285714 C69.1116512,14.3024721 69.0504906,14.1583078 69,14 C69.3636364,14 69.6363636,14.1785714 69.7272727,14.9642857 Z" id="Shape"></path>
                        <path d="M70,14.16928 L69,14.71928 C69.1724138,13.91928 69.5172414,13.86928 70,14.16928 Z" id="Shape"></path>
                        <path d="M65,16 C64.6551724,16.35 64.3103448,16.5 64,16 L65,16 Z" id="Shape"></path>
                        <path d="M64,16.2782202 L63,16.2782202 C63.2874628,15.9072599 63.7125372,15.9072599 64,16.2782202 Z" id="Shape"></path>
                        <path d="M62.5192308,15.5263158 C62.7307692,15.5263158 62.9615385,15.5263158 63,16 C62.5384615,16 62.0961538,15.8157895 61.6346154,15.7631579 C61.1730769,15.7105263 61.1730769,15.3157895 61,15 C61.3653846,15.5263158 61.9423077,15.3421053 62.5192308,15.5263158 Z" id="Shape"></path>
                        <path d="M61,15.65 L62,15 C61.7746008,15.5863169 61.3740987,15.8466432 61,15.65 Z" id="Shape"></path>
                        <path d="M60,15.7247991 L59,15.0747991 C59.3673469,15.0747991 59.7755102,14.6747991 60,15.7247991 Z" id="Shape"></path>
                        <path d="M60,15.1493536 L59,15.1493536 C59.317014,14.9502155 59.682986,14.9502155 60,15.1493536 Z" id="Shape"></path>
                        <polygon id="Shape" points="60 15.35 59 15.35 59.5454545 15"></polygon>
                        <polygon id="Shape" points="64.5 14 64.5 14 64 14 64 14"></polygon>
                        <path d="M29,20.2224082 C29.3075701,19.9258639 29.6924299,19.9258639 30,20.2224082 C29.6968322,20.54329 29.3031678,20.54329 29,20.2224082 Z" id="Shape"></path>
                        <path d="M56,13.2727273 C56,13.2727273 56,13.6363636 56,14 L55,13.3636364 C55.1052632,13.3636364 55.1578947,13 55.2105263,13 C55.4761727,13.0333252 55.7402638,13.1245567 56,13.2727273 Z" id="Shape"></path>
                        <path d="M31.8546512,20 C31.8546512,20 31.8546512,20.1315916 31.8546512,20.1503904 L31.5232558,20.3007808 L33.2674419,20.6203605 L34,20.8459461 C34,20.8459461 34,20.8459461 34,20.9587389 C32.9822489,21.0804226 31.9523292,20.9319863 31,20.5263664 L31.4883721,20.281982 L31.7151163,20.0375976 L31.8546512,20 Z" id="Shape"></path>
                        <path d="M53.9,13.25 L53,13.25 L54,13 C54,13 53.9,13.25 53.9,13.25 Z" id="Shape"></path>
                        <path d="M29,18.3380659 C29.2910122,17.8873114 29.7089878,17.8873114 30,18.3380659 C29.6046512,19.2206447 29.5813953,19.2206447 29,18.3380659 Z" id="Shape"></path>
                        <path d="M53,12.8964355 L52,12.3464355 C52.5964912,11.7964355 52.7192982,11.8464355 53,12.8964355 Z" id="Shape"></path>
                        <path d="M51,12.5114893 C51,12.5114893 51,12.8045957 51,13 L50,12.4626382 C50.3075811,11.8285496 50.6981649,11.84763 51,12.5114893 Z" id="Shape"></path>
                        <path d="M28.8967742,18.1928787 C29.283871,18.1928787 29.7096774,17.9956174 30,18.7846626 C28.993621,19.209226 27.9477645,19.002919 27,18.1928787 C27.6259641,17.9357071 28.2708101,17.9357071 28.8967742,18.1928787 Z" id="Shape"></path>
                        <path d="M11,7 C11,7 11,7 11,7 L11.8,7 L11.8,7.25 L11,7 Z" id="Shape"></path>
                        <path d="M12,7.5509125 C12.2857143,6.6509125 12.6571429,7.1009125 13,7.2009125 L12,7.5509125 Z" id="Shape"></path>
                        <polygon id="Shape" points="15 6.37288136 14 7 14 6.86440678 14.6712329 6"></polygon>
                        <path d="M3,8.60786974 C3.18987342,8 3.50632911,8.31840796 3.72151899,8 L4,8.69470828 C3.5443038,9.12890095 3.5443038,9.09995477 3,8.60786974 Z" id="Shape"></path>
                        <path d="M8,8.55555556 L8.72727273,8 C8.72727273,8 8.90909091,8.22222222 9,8.33333333 L8.27272727,9 L8,8.55555556 Z" id="Shape"></path>
                        <path d="M9.19585576,9 C9.19585576,9 9.05572805,9 9.00318016,8.78571429 C8.99893995,8.66673643 8.99893995,8.54754928 9.00318016,8.42857143 C9.47611118,7.97619048 10.036622,8.11904762 10.6146488,8 L11,8.30952381 C10.2993615,8.64285714 9.77388256,8.83333333 9.19585576,9 Z" id="Shape"></path>
                        <polygon id="Shape" points="4 13.3 4.1 13 4.5 13.2"></polygon>
                        <path d="M44,10.0236111 L44,10.1736111 L43,10.1736111 C43.2289445,10.14161 43.4710555,10.14161 43.7,10.1736111 C43.7,10.1736111 44,9.92361111 44,10.0236111 Z" id="Shape"></path>
                        <polygon id="Shape" points="3 15 3.6 15.05 3.1 15.2"></polygon>
                        <polygon id="Shape" points="25 14.45 25 14 25.8 14.3"></polygon>
                        <polygon id="Shape" points="25 14 25.9 14 25.9 14.4"></polygon>
                        <path d="M40.5728762,9.99934812 L36.5859473,9.75226579 C36.3761481,9.74208061 36.1653347,9.74208061 35.9555355,9.75226579 C33.409294,9.75401958 30.8654547,9.65773694 28.3394789,9.46400307 C27.6238763,9.46400307 26.9082737,9.46400307 26.2097092,9.37134719 C25.8020938,9.3426431 25.398003,9.29793649 25,9.23751093 L25,9.09337957 C25.1533434,9.09337957 25.323725,8.99042859 25.4770684,9.00072369 C26.516396,9.00072369 27.5557237,9.00072369 28.5950513,9.07278937 C29.6343789,9.14485505 31.0996605,9.18603544 32.343446,9.25810112 C32.990896,9.25810112 33.638346,9.40223248 34.285796,9.42282268 C36.2792605,9.49488836 38.2897631,9.54636384 40.2832276,9.59783933 L40.658067,9.59783933 C40.8284486,9.59783933 40.981792,9.64931482 40.9988302,9.77285598 C41.0158683,9.89639715 40.8454868,10.0096432 40.5728762,9.99934812 Z" id="Shape"></path>
                        <path d="M27,14.4695907 C27.1111647,14.1763132 27.2988955,14 27.5,14 C27.7011045,14 27.8888353,14.1763132 28,14.4695907 L27,14.4695907 Z" id="Shape"></path>
                        <path d="M27,14.1869319 C27.3139405,13.9376894 27.6860595,13.9376894 28,14.1869319 L27,14.1869319 Z" id="Shape"></path>
                        <path d="M27,14.2666667 C27.3469388,14.2666667 27.6734694,13.6666667 28,14.2666667 C27.6530612,14.7666667 27.6326531,14.8166667 27,14.2666667 Z" id="Shape"></path>
                        <path d="M41.3353659,10.9090512 C40.8212793,10.9954709 40.3135057,10.6871851 40,10.0983072 C41.0032957,9.90223946 42.0240055,10.0001199 43,10.3859905 C43,10.3859905 43,10.3859905 43,10.5167557 C42.5068916,10.970822 41.9043192,11.112827 41.3353659,10.9090512 Z" id="Shape"></path>
                        <path d="M43,10.3211943 C43.3333333,9.97119427 43.6666667,9.82119427 44,10.3211943 L43,10.3211943 Z" id="Shape"></path>
                        <path d="M45,11 L46,11 C46,11 46,11 46,11 C46,11 45.2,11 45,11 Z" id="Shape"></path>
                        <polygon id="Shape" points="46 11.2 46.5 11 46.6 11.25"></polygon>
                        <path d="M15,18 C15,18 15,18 15,18 L16,18 C15.7348298,18.1189214 15.4512325,18.2194695 15.1538462,18.3 C15.1538462,18.3 15.1538462,18.05 15,18 Z" id="Shape"></path>
                        <path d="M17,18.1777778 C17.36,18.1777778 17.76,17.7777778 18,18.1777778 L17,18.1777778 Z" id="Shape"></path>
                        <path d="M18,18.316961 C18.3888889,17.816961 18.7222222,17.866961 19,18.766961 L18,18.316961 Z" id="Shape"></path>
                        <polygon id="Shape" points="18 19 18 19 19 18 19 18.4"></polygon>
                        <path d="M19,18.8723024 C19.1857152,18.6018782 19.3481575,18.3096244 19.4848485,18 L20,18.7269186 C19.6969697,19.3084535 19.3333333,18.7632646 19,18.8723024 Z" id="Shape"></path>
                        <path d="M23.0404082,18.4 C22.9865306,18.2680274 22.9865306,18.1319726 23.0404082,18 L23.6404082,18 L23.6404082,18.3 L23.0404082,18.4 Z" id="Shape"></path>
                        <path d="M72,7 C71.6145857,7.07325522 71.2616863,7.3026398 71,7.65 C71.4583333,7.65 71.5833333,7.55 72,7 Z" id="Shape"></path>
                        <path d="M73.1962684,9.92000818 C73.3632502,10.0266639 73.5777304,10.0266639 73.7447121,9.92000818 C73.9197572,9.79560725 74.015901,9.58912493 73.99784,9.37638081 C73.9661465,9.15864808 73.776791,8.99776873 73.5548663,9.00002341 C73.2384564,9.00002341 73.1540805,9.00002341 73.0486105,9.35547207 C72.9464374,9.55355569 73.0098716,9.796082 73.1962684,9.92000818 Z" id="Shape"></path>
                        <path d="M67,6 C66.1818182,6 66.0909091,6 66,6.3 C66.2043148,6.34755365 66.4369207,6.34121438 66.6316871,6.28278446 C66.8264535,6.22435455 66.9620772,6.12022494 67,6 Z" id="Shape"></path>
                        <path d="M65.0133815,4.27198253 C65.0133815,4.48397962 65.0133815,4.5996144 65.1353231,4.7537941 C65.2245911,4.93934426 65.3641749,5.02758728 65.501148,4.98506365 C65.5522466,5.00497878 65.6052477,5.00497878 65.6563464,4.98506365 C65.7207376,4.91349969 65.7802425,4.82944645 65.833716,4.73452163 L66,3.94435067 C65.975605,3.86925526 65.9534055,3.79206723 65.9334864,3.71308112 C65.9334864,3.52035649 65.8226304,3.42399418 65.7561168,3.28908694 L65.5676616,3 C65.5676616,3 65.4568055,3.13490724 65.4013775,3.13490724 C65.2948947,3.1203368 65.1925081,3.20933704 65.1353231,3.36617679 C65.0714645,3.50092065 65.0259849,3.65905433 65.0022959,3.82871589 C64.9912103,3.94435067 65.0244671,4.11780283 65.0133815,4.27198253 Z" id="Shape"></path>
                        <path d="M71.5291031,13.2383369 C71.5480815,13.2852061 71.5480815,13.334618 71.5291031,13.3814872 C71.5291031,13.4465556 71.5291031,13.5116239 71.4320147,13.5766922 C71.3911605,13.6949965 71.3258009,13.8088864 71.2378379,13.9150476 C71.0595018,14.1337549 70.9786261,14.3821837 71.0048257,14.6307992 C70.9941164,14.7453725 71.0966751,14.8511179 71.2572556,14.8910726 L71.6456092,14.9821682 C71.9516273,15.0379677 72.2771114,14.9600611 72.4611518,14.7869632 L72.5970756,14.6958676 C72.7088079,14.6248774 72.8008514,14.541159 72.8689231,14.4486079 C72.8689231,14.4486079 72.8689231,14.4486079 72.8689231,14.4486079 C72.8689231,14.4486079 72.6359109,14.2794302 72.8689231,14.1492936 C73.1019353,14.0191569 72.8689231,14.1492936 72.8689231,14.0842252 C72.8689231,14.0191569 72.9854292,13.7979246 72.9854292,13.6547742 C73.0048569,13.5597848 73.0048569,13.463463 72.9854292,13.3684736 C72.973591,13.2275028 72.8491041,13.1018007 72.6598721,13.0397385 C72.4706401,12.9776764 72.246154,12.9889263 72.0727982,13.0691592 C71.9530936,13.1439863 71.7851819,13.173343 71.6261915,13.1472412 C71.4902677,13.1732686 71.5291031,13.1992959 71.5291031,13.2383369 Z" id="Shape"></path>
                        <polygon id="Shape" points="73 14.05 73 14.35 73 14.35 73 14"></polygon>
                        <path d="M65,6.4 C65,6.4 64.6666667,6 64.5333333,6 L64,6 C64,6 64,6.3 64,6.35 C64,6.4 64.6666667,6.45 65,6.4 Z" id="Shape"></path>
                        <path d="M77.0097778,9.43333333 C77.0097778,9.43333333 77.6097778,9.43333333 77.6097778,9.13333333 C77.6097778,8.83333333 77.6097778,9.13333333 77.6097778,9.13333333 C77.6097778,9.13333333 77.6097778,9.13333333 77.6097778,9.13333333 C77.6097778,9.13333333 76.9097778,9.23333333 77.0097778,9.43333333 Z" id="Shape"></path>
                        <path d="M59.1,9.35 L59.9,9 C59.3,9 59.1,9 59,9 L59.1,9.35 Z" id="Shape"></path>
                        <path d="M25.0090373,8.54128653 C25.0288006,8.68569208 25.1083407,8.81570862 25.2289053,8.90068364 C25.3494698,8.98565867 25.5003898,9.01807261 25.6460847,8.99028361 C25.730195,8.97377134 25.8055148,8.92826894 25.8584339,8.86199873 C26.1524558,8.44507287 25.9564412,8.07625385 25.564412,8.01211141 C25.4670949,7.99596286 25.3677072,7.99596286 25.2703901,8.01211141 C25.0253718,8.10832507 24.9763682,8.18850312 25.0090373,8.46110848 L25.0090373,8.54128653 Z" id="Shape"></path>
                        <polygon id="Shape" points="52 7 52 7 52 7.3"></polygon>
                        <polygon id="Shape" points="52 7.05 52.1 7 52 7"></polygon>
                        <path d="M55.2666667,0.7 L55.2666667,0 C55.2666667,0 54.6666667,0.4 55.2666667,0.7 Z" id="Shape"></path>
                        <polygon id="Shape" points="53.6 7 53.6 7 53 7 53 7"></polygon>
                        <path d="M52.4846154,2.7240008 C52.4846154,2.7240008 52.9,2.7240008 52.9692308,2.4740008 C53.0384615,2.2240008 52.9692308,2.0740008 52.9692308,2.0240008 C52.8107308,1.99199973 52.6431154,1.99199973 52.4846154,2.0240008 C52.311479,2.0240008 52.1514944,2.09071042 52.0649262,2.1990008 C51.9783579,2.30729118 51.9783579,2.44071042 52.0649262,2.5490008 C52.1514944,2.65729118 52.311479,2.7240008 52.4846154,2.7240008 Z" id="Shape"></path>
                        <path d="M51.6151365,3 C51.6151365,3 51.0151365,3 51.0151365,3 C50.9949545,3.18319448 50.9949545,3.36680552 51.0151365,3.55 C51.0151365,3.55 51.7151365,3.55 51.7151365,3.25 C51.7255689,3.16374615 51.6911155,3.07761271 51.6151365,3 Z" id="Shape"></path>
                        <path d="M33.0011152,2.51234607 C32.9845347,2.73906974 33.1544637,2.94325737 33.4029635,2.99520914 C33.6360154,3.02513817 33.8627583,2.91259646 33.9566444,2.72039478 C34.0505305,2.5281931 33.9883522,2.30384168 33.8048119,2.17255354 C33.6239801,1.97583155 33.5436104,1.95794774 33.282409,2.06525064 C33.1692326,2.08900427 33.0873256,2.17648856 33.0814848,2.27985645 C33.0814848,2.27985645 33.0011152,2.45869462 33.0011152,2.51234607 Z" id="Shape"></path>
                        <path d="M52.4249506,3.5 L52.9249506,3 C52.9249506,3 52.3249506,3 52.1249506,3 C51.9249506,3 51.9249506,3.35 52.4249506,3.5 Z" id="Shape"></path>
                        <path d="M53.2883799,7.90504796 C53.4257701,8.03165068 53.6282633,8.03165068 53.7656534,7.90504796 C53.9516841,7.72704133 54.0356206,7.45575834 53.9859335,7.19310286 C53.9859335,6.95578783 53.6922267,6.91623532 53.2516666,7.19310286 C52.8111064,7.4699704 53.0313865,7.74683794 53.2883799,7.90504796 Z" id="Shape"></path>
                        <path d="M51.7,6 L51,6 C51,6 51,6 51,6 L51.7,6 Z" id="Shape"></path>
                        <path d="M57.028,8 L57.828,8 C57.828,8 57.828,8 57.828,8 L57.128,8 C57.128,8 56.928,8 57.028,8 Z" id="Shape"></path>
                        <path d="M53.0555556,7.59931109 L53.0555556,7.74397239 C53.0555556,7.83696894 53.1333333,7.94029844 53.2666667,7.97129729 C53.4,8.00229614 53.2666667,7.97129729 53.3555556,7.97129729 C53.5162856,8.03794894 53.7052645,7.98522578 53.8,7.84730189 C53.8609021,7.74084899 53.9276571,7.63738255 54,7.53731339 C54,7.53731339 54,7.45464979 54,7.41331799 C53.9717581,7.32016634 53.9136113,7.237252 53.8333333,7.17566015 L53.6222222,7 L53.3555556,7 L53.1888889,7.1239954 L53,7.54764634 C53.0200123,7.56342033 53.0385936,7.58070032 53.0555556,7.59931109 Z" id="Shape"></path>
                        <path d="M57.488219,5.25 C57.488219,5.25 57.488219,5 57.488219,5 C56.888219,5 56.788219,5.4 57.488219,5.9 C57.6329817,5.6893784 57.6329817,5.4606216 57.488219,5.25 Z" id="Shape"></path>
                        <path d="M57.9152817,7 C57.0295583,7 56.8327309,7.47619048 57.127972,8 C57.8410189,7.79660593 58.1679161,7.38139801 57.9152817,7 Z" id="Shape"></path>
                        <path d="M51.0177967,3.63387772 C51.0660618,3.72647953 51.0660618,3.82408341 51.0177967,3.91668522 C50.9940678,3.95674488 50.9940678,3.99958535 51.0177967,4.03964501 C51.2852463,4.25316396 51.6623832,4.4235357 52.1065376,4.53148414 L52.224879,4.53148414 C52.5562349,4.53148414 52.650908,4.53148414 52.6982446,4.72821979 C52.7082307,4.78996821 52.7490179,4.84929886 52.816586,4.90036349 C52.9532418,4.99628167 53.2027264,5.02738819 53.408293,4.97413936 C53.5976392,4.97413936 53.8106538,4.85117958 53.8579903,4.70362784 C53.8859081,4.61089932 53.8339817,4.51648175 53.7159806,4.44541229 C53.7159806,4.44541229 53.5503027,4.44541229 53.4319613,4.34704446 C53.3136199,4.24867664 53.2189468,4.24867664 53.4319613,4.16260479 C53.6449758,4.07653294 53.6686441,3.85520533 54,3.76913348 C53.7396489,3.76913348 53.7159806,3.76913348 53.7159806,3.58469381 C53.7159806,3.40025413 53.7159806,3.48632598 53.7159806,3.46173402 C53.6706593,3.39826885 53.6706593,3.32846355 53.7159806,3.26499837 C53.733073,3.21146738 53.6729327,3.15939459 53.573971,3.14203859 L53.1479419,3.0190788 C52.9167045,3.07841548 52.6454627,3.07841548 52.4142252,3.0190788 C52.3047797,3.00812398 52.1923149,3.00812398 52.0828693,3.0190788 C51.9288796,2.9936404 51.7634934,2.9936404 51.6095037,3.0190788 C51.4580521,3.08965159 51.3300966,3.17274476 51.2308112,3.26499837 C51.2308112,3.26499837 51.2308112,3.26499837 51.2308112,3.26499837 C51.2308112,3.26499837 50.9704602,3.49862196 51.0177967,3.63387772 Z" id="Shape"></path>
                        <path d="M37.028,12.6111111 C37.028,12.6111111 37.728,12.6111111 37.628,12.3611111 C37.528,12.1111111 37.628,12.3611111 37.628,12.1111111 C37.628,11.8611111 37.128,12.1111111 37.128,12.1111111 C37.128,12.1111111 36.928,12.4611111 37.028,12.6111111 Z" id="Shape"></path>
                        <path d="M37.3735977,10.9040424 C37.59218,10.7843041 37.7924182,10.650311 37.971354,10.5040424 C38.0704078,10.2971393 37.9045439,10.0751573 37.5977563,10.0040424 C37.4588107,9.98979018 37.3171405,10.0135631 37.2046858,10.0700016 C37.092231,10.12644 37.0184583,10.2107928 37,10.3040424 C37.0396735,10.5232331 37.168949,10.7308502 37.3735977,10.9040424 Z" id="Shape"></path>
                        <polygon id="Shape" points="50.1 6 50.6 6 50.6 6 50 6"></polygon>
                        <path d="M32.4114865,8.9794755 C32.5269707,9.01564081 32.6522567,9.00366638 32.7587112,8.9462889 C32.8651658,8.88891141 32.9436901,8.79103494 32.976338,8.67502853 C33.0193755,8.53827432 33.0032293,8.38986284 32.9317777,8.26544129 C32.860326,8.14101973 32.7400251,8.05183068 32.5997703,8.01929659 C32.4780191,7.98340321 32.3468585,7.99797964 32.2360655,8.05971662 C32.1252726,8.12145359 32.0442468,8.22511347 32.0113833,8.34716256 C31.9522687,8.63068203 32.1289955,8.9099765 32.4114865,8.9794755 Z" id="Shape"></path>
                        <path d="M29.4736001,8 C29.1950357,8 29.1602152,8 29.0557536,8.24530023 C28.9869045,8.38118676 28.9815902,8.53790426 29.0410931,8.67763084 C29.1005959,8.81735742 29.2195106,8.92739994 29.3691385,8.98120094 C29.4659922,9.00626635 29.5682594,9.00626635 29.6651131,8.98120094 C29.9007457,8.89608723 30.037841,8.66485378 29.9908001,8.43187712 C29.9437591,8.19890046 29.7260479,8.03087287 29.4736001,8.0327067 L29.4736001,8 Z" id="Shape"></path>
                        <path d="M51.0444444,2.25 L51.0444444,2 C51.0444444,2 50.9444444,2.1 51.0444444,2.25 Z" id="Shape"></path>
                        <path d="M50,3.25 C50.0096981,3.16673721 50.0096981,3.08326279 50,3 C50,3 50,3 50,3 L50,3.25 Z" id="Shape"></path>
                        <path d="M50,3.70355339 L50.5,3.35355339 C50.5,3.35355339 50.5,3.35355339 50.5,3.10355339 C50.5,2.85355339 50.5,3.10355339 50.5,3.35355339 L50,3.70355339 Z" id="Shape"></path>
                        <path d="M51.5514719,2.35 L51.5514719,2 L51.0514719,2 C50.9828427,2.09705627 50.9828427,2.20294373 51.0514719,2.3 L51.5514719,2.35 Z" id="Shape"></path>
                        <path d="M41.0345214,9.45558365 L41.4051554,9.75558365 L41.6934262,9.75558365 C41.6934262,9.75558365 41.9405155,9.75558365 41.9816971,9.75558365 C42.0228786,9.75558365 41.9816971,9.75558365 41.9816971,9.45558365 C41.847386,9.144299 41.5691515,8.96545605 41.2816107,9.00558365 C41.1875426,8.98946893 41.0941951,9.04026033 41.0414987,9.13623126 C40.9888023,9.23220219 40.9860897,9.35635567 41.0345214,9.45558365 Z" id="Shape"></path>
                        <path d="M40.0033111,10.4186896 C39.987567,10.5566358 40.0283937,10.6950634 40.116734,10.8032637 C40.116734,10.890103 40.2049518,10.9645368 40.3183747,10.989348 L40.4696052,10.989348 C40.6259818,11.0257132 40.7893678,10.9672285 40.8854891,10.8404806 C40.9354638,10.7606667 40.9696704,10.6722774 40.9863094,10.5799626 C41.0045635,10.5150193 41.0045635,10.446416 40.9863094,10.3814727 C40.9418616,10.2900591 40.8772849,10.2095401 40.7972713,10.145766 C40.753775,10.0865818 40.6918163,10.0430172 40.6208357,10.0217098 C40.4822077,10.0217098 40.3183747,9.93487051 40.2301569,10.1085492 C40.0911322,10.1483421 39.9975531,10.2762821 40.0033111,10.4186896 Z" id="Shape"></path>
                        <path d="M39.2247674,8.93753662 C39.3539226,9.0053081 39.5081155,9.01861591 39.6485139,8.97410859 C39.7889123,8.92960126 39.9021358,8.8315205 39.95967,8.70456711 C39.9494931,8.66069486 39.9494931,8.61531392 39.95967,8.57144167 C40.0672167,8.2219874 39.95967,8.02229925 39.6370298,8.00565857 C39.4269976,7.97789527 39.2165273,8.05353248 39.0813718,8.20534672 C38.9728761,8.38642334 38.9728761,8.60669388 39.0813718,8.7877705 C39.1092329,8.85149529 39.1598663,8.90437812 39.2247674,8.93753662 Z" id="Shape"></path>
                        <path d="M49.433237,2.98859779 C49.6828841,3.04205849 49.9333603,2.9026215 50,2.67308786 C50,2.35757792 50,2.06310199 49.7052832,2 L49.5239191,2 C49.3652255,2 49.2972139,2 49.2065318,2 L49.2065318,2.12620397 C49.0409393,2.24262534 48.965642,2.43914731 49.0148731,2.62642367 C49.0641041,2.81370002 49.2284673,2.95598785 49.433237,2.98859779 Z" id="Shape"></path>
                    </g>
                </g>
            </g>
        </g>
    </g>
</svg>