<?xml version="1.0" encoding="utf-8"?>
<!-- Generator: Adobe Illustrator 22.1.0, SVG Export Plug-In . SVG Version: 6.00 Build 0)  -->
<svg version="1.1" id="Layer_1" xmlns="http://www.w3.org/2000/svg" xmlns:xlink="http://www.w3.org/1999/xlink" x="0px" y="0px"
	 viewBox="0 0 24 24" style="enable-background:new 0 0 24 24;" xml:space="preserve">
<style type="text/css">
	.st0{fill:#FFFFFF;}
</style>
<path class="st0" d="M21.3,6.6c1,1.6,1.4,3.4,1.4,5.4c0,1.9-0.5,3.7-1.4,5.4s-2.3,2.9-3.9,3.9s-3.4,1.4-5.4,1.4s-3.7-0.5-5.4-1.4
	c-1.6-1-2.9-2.3-3.9-3.9c-1-1.6-1.4-3.4-1.4-5.4c0-1.9,0.5-3.7,1.4-5.4C3.7,5,5,3.7,6.6,2.7c1.6-1,3.4-1.4,5.4-1.4s3.7,0.5,5.4,1.4
	S20.3,5,21.3,6.6z M18.3,12.9v-1.8c0-0.2-0.1-0.5-0.3-0.6s-0.4-0.3-0.6-0.3h-3.6V6.6c0-0.2-0.1-0.5-0.3-0.6s-0.4-0.3-0.6-0.3h-1.8
	c-0.2,0-0.5,0.1-0.6,0.3c-0.2,0.2-0.3,0.4-0.3,0.6v3.6H6.6c-0.2,0-0.5,0.1-0.6,0.3c-0.2,0.2-0.3,0.4-0.3,0.6v1.8
	c0,0.2,0.1,0.5,0.3,0.6c0.2,0.2,0.4,0.3,0.6,0.3h3.6v3.6c0,0.2,0.1,0.5,0.3,0.6c0.2,0.2,0.4,0.3,0.6,0.3h1.8c0.2,0,0.5-0.1,0.6-0.3
	s0.3-0.4,0.3-0.6v-3.6h3.6c0.2,0,0.5-0.1,0.6-0.3S18.3,13.1,18.3,12.9z"/>
</svg>
